<svg xmlns="http://www.w3.org/2000/svg" width="326.02" height="124.8" viewBox="-7.2 -7.2 326.02 124.8"><path fill="#feffff" d="M33.63 41.91V48H11.65q-.85 0-1.82-.2t-1.92-.62-1.82-1.09-1.53-1.62-1.07-2.2-.4-2.82v-16.5q0-.85.2-1.82t.62-1.92 1.11-1.82 1.62-1.53q.95-.67 2.2-1.07 1.24-.4 2.81-.4h21.98v6.09H11.65q-1.2 0-1.83.64-.63.63-.63 1.87v16.46q0 1.17.64 1.81.65.65 1.82.65zm31.25-10.86v8.56q0 1.27-.45 2.73t-1.44 2.72-2.6 2.1-3.91.84H45.49q-1.26 0-2.73-.45-1.46-.44-2.72-1.44-1.25-.99-2.09-2.6-.85-1.6-.85-3.9 0-1.27.45-2.74.44-1.48 1.44-2.73.99-1.26 2.6-2.1t3.9-.84h10.99v5.81H45.49q-1.24 0-1.92.76t-.68 1.89q0 1.19.79 1.86.78.67 1.86.67h10.94q1.25 0 1.93-.75t.68-1.88v-8.51q0-1.19-.74-1.89-.74-.71-1.87-.71H43.1v-5.79h13.38q1.27 0 2.73.45 1.47.44 2.72 1.44t2.1 2.6.85 3.9m27.82.15V48h-6.1V31.2q0-1.2-.63-1.82t-1.88-.62h-7.92V48h-6.09V25.69q0-.64.23-1.19t.66-.96.98-.64q.57-.24 1.2-.24h10.99q1.27 0 2.72.45 1.45.44 2.77 1.43v-1.88h8.25q.86 0 1.82.2t1.91.62 1.82 1.09 1.52 1.62 1.06 2.19q.4 1.25.4 2.82V48h-6.1V31.2q0-1.2-.6-1.82-.59-.62-1.83-.62h-5.49q.31 1.12.31 2.44m47.25 0v8.25q0 1.57-.4 2.82t-1.06 2.2-1.52 1.62-1.82 1.09-1.91.62-1.83.2h-10.99v-6.09h10.99q1.22 0 1.83-.64.61-.63.61-1.82v-8.21q0-1.26-.62-1.87t-1.82-.61h-10.94q-1.24 0-1.88.62t-.63 1.82v24.72h-6.09V31.2q0-1.57.4-2.82.39-1.24 1.06-2.19t1.54-1.62q.86-.66 1.81-1.09.95-.42 1.93-.62.97-.2 1.81-.2h10.99q1.57 0 2.82.4t2.19 1.06q.95.65 1.62 1.52.66.87 1.09 1.82.42.95.62 1.91t.2 1.83m11.39-19.25v5.51h-6.1v-5.51zm0 10.71V48h-6.1V22.66zm33.39 8.54v8.25q0 1.57-.39 2.82-.4 1.25-1.06 2.2-.65.95-1.52 1.62t-1.82 1.09-1.92.62-1.84.2h-10.99q-1.27 0-2.77-.45-1.5-.44-2.78-1.46t-2.13-2.65-.85-3.99V31.2q0-2.35.85-3.98.86-1.63 2.13-2.65 1.28-1.02 2.78-1.46 1.5-.45 2.77-.45h10.99q2.34 0 3.98.85 1.64.84 2.65 2.12t1.47 2.78.45 2.79m-6.09 8.25v-8.21q0-1.26-.63-1.87t-1.83-.61h-10.95q-1.21 0-1.85.62-.63.62-.63 1.82v8.25q0 1.19.63 1.82.64.64 1.85.64h10.95q1.24 0 1.85-.64.61-.63.61-1.82m39.35-5.51V48h-6.09V33.94q0-1.2-.41-2.15t-1.11-1.63-1.66-1.04-2.05-.36h-10.66V48h-6.1V25.69q0-.64.24-1.19t.65-.96q.43-.41.99-.64t1.19-.24h13.74q1.15 0 2.42.26 1.28.26 2.54.83 1.25.58 2.39 1.46 1.13.88 2.01 2.13t1.4 2.89.51 3.71m31.5-2.89v8.56q0 1.27-.44 2.73-.45 1.46-1.44 2.72-1 1.25-2.61 2.1-1.6.84-3.9.84h-10.99q-1.27 0-2.73-.45-1.47-.44-2.72-1.44-1.25-.99-2.1-2.6-.84-1.6-.84-3.9 0-1.27.44-2.74.45-1.48 1.45-2.73.99-1.26 2.6-2.1 1.6-.84 3.9-.84h10.99v5.81h-10.99q-1.24 0-1.92.76t-.68 1.89q0 1.19.78 1.86.79.67 1.87.67h10.94q1.24 0 1.92-.75t.68-1.88v-8.51q0-1.19-.74-1.89-.73-.71-1.86-.71h-13.38v-5.79h13.38q1.27 0 2.73.45 1.47.44 2.72 1.44t2.1 2.6.84 3.9m28.24-8.39v6.1h-10.64V48h-6.16V28.76h-7.92v-6.1h7.92v-8.27h6.16v8.27zm31.57 8.54v8.25q0 1.57-.39 2.82-.4 1.25-1.06 2.2-.65.95-1.52 1.62t-1.82 1.09-1.92.62-1.84.2h-10.99q-1.27 0-2.77-.45-1.5-.44-2.78-1.46t-2.13-2.65-.85-3.99V31.2q0-2.35.85-3.98.86-1.63 2.13-2.65 1.28-1.02 2.78-1.46 1.5-.45 2.77-.45h10.99q2.34 0 3.98.85 1.65.84 2.65 2.12 1.01 1.28 1.47 2.78t.45 2.79m-6.09 8.25v-8.21q0-1.26-.63-1.87t-1.83-.61H289.8q-1.21 0-1.85.62-.63.62-.63 1.82v8.25q0 1.19.63 1.82.64.64 1.85.64h10.95q1.24 0 1.85-.64.61-.63.61-1.82M85.16 83.29v2.76q0 2.09-.52 3.73-.51 1.64-1.39 2.89t-2.03 2.15-2.4 1.45-2.53.82-2.4.26H60.11v-6.09h13.78q1.17-.1 2.12-.48.95-.39 1.63-1.05.68-.65 1.05-1.58.38-.93.38-2.1v-2.76q-.12-1.15-.5-2.11-.37-.96-1.02-1.64-.64-.68-1.55-1.07-.92-.39-2.11-.39H60.15q-1.22 0-1.85.64-.63.63-.63 1.83v25.05h-6.1V80.55q0-2.35.86-3.99t2.13-2.65 2.78-1.46q1.5-.46 2.77-.46h13.78q2.06 0 3.7.53t2.89 1.4q1.26.88 2.14 2.03t1.45 2.4q.57 1.26.83 2.54.26 1.27.26 2.4m32.7 5.51v16.8h-6.1V88.8q0-1.2-.61-1.82t-1.83-.62H98.33v-6.1h10.99q.87 0 1.83.2t1.91.62 1.82 1.09 1.52 1.62 1.06 2.19.4 2.82M95.87 69.55v36.05h-6.09V69.55zM151 88.8v8.25q0 1.57-.4 2.82t-1.06 2.2-1.52 1.62-1.82 1.09-1.92.62-1.84.2h-10.99q-1.27 0-2.77-.45-1.5-.44-2.77-1.46-1.28-1.02-2.14-2.65-.85-1.63-.85-3.99V88.8q0-2.35.85-3.98.86-1.63 2.14-2.65 1.27-1.02 2.77-1.46 1.5-.45 2.77-.45h10.99q2.35 0 3.99.85 1.64.84 2.64 2.12t1.47 2.78.46 2.79m-6.1 8.25v-8.21q0-1.26-.63-1.87t-1.83-.61H131.5q-1.22 0-1.86.62-.63.62-.63 1.82v8.25q0 1.19.63 1.82.64.64 1.86.64h10.94q1.24 0 1.85-.64.61-.63.61-1.82m38.53-8.4q0 1.27-.44 2.74-.45 1.46-1.44 2.71-1 1.26-2.6 2.1-1.61.85-3.91.85h-10.99v-5.79h10.99q1.25 0 1.92-.77.68-.76.68-1.88 0-1.2-.76-1.88t-1.84-.68h-10.99q-1.24 0-1.92.76-.68.77-.68 1.89v8.51q0 1.22.76 1.9t1.89.68h10.94v5.81h-10.99q-1.26 0-2.73-.45-1.46-.44-2.72-1.44-1.25-.99-2.1-2.6-.84-1.6-.84-3.9v-8.56q0-1.26.45-2.73.44-1.46 1.44-2.71.99-1.26 2.6-2.1 1.6-.85 3.9-.85h10.99q1.27 0 2.73.45 1.47.44 2.72 1.44t2.1 2.6q.84 1.61.84 3.9m32.18 2.89v14.06h-6.09V91.54q0-1.2-.41-2.15T208 87.76t-1.66-1.04-2.05-.36h-10.66v19.24h-6.09V83.29q0-.64.23-1.19t.66-.96.98-.64 1.2-.24h13.73q1.15 0 2.43.26 1.27.26 2.53.83 1.25.58 2.39 1.46 1.13.88 2.01 2.13t1.4 2.89q.51 1.64.51 3.71m11.53-21.99v5.51h-6.09v-5.51zm0 10.71v25.34h-6.09V80.26zm26.4 0h8.39l-10.95 11.96 12.33 13.38h-8.39l-8.11-8.84-8.11 8.84h-8.41l12.3-13.43-10.9-11.91h8.35l6.72 7.34z"/></svg>