<svg xmlns="http://www.w3.org/2000/svg" xml:space="preserve" width="210mm" height="297mm" viewBox="0 0 210 297"><defs><linearGradient id="a" x1="84.803" x2="101.83" y1="171.69" y2="220.33" gradientUnits="userSpaceOnUse"><stop offset="0" stop-opacity=".8"/><stop offset=".5" stop-opacity="0"/><stop offset="1" stop-opacity=".8"/></linearGradient></defs><path fill="#fff" d="M196.42 117.16c-42.512-3.128-97.368-4.74-159.43-5.466a114.01 114.01 0 0 1-1.822-22.958c38.782-20.594 104.56-19.944 144.12-2.799.616 6.7.477 13.399.129 20.099 1.612-7.16 2.74-14.523 2.899-22.289-40.053-24.782-112.33-27.931-158.99-2.32-.29 14.609 1.11 28.503 4.251 41.23 65.673-.543 111.27-1.52 168.85-5.497zM4.555 164.9c59.2-4.72 114.16-5.2 169.09-5.649-12.358 31.244-33.41 57.96-69.057 77.074-26.625-17.882-44.07-37.735-53.205-59.218 12.035 17.024 27.04 33.694 53.387 49.014 18.016-12.86 35.863-26.682 51.018-55.756-48.187-.644-95.124-.627-151.23-5.466z" style="paint-order:markers fill stroke"/><g fill="#ffe100"><g stroke-linecap="round" stroke-linejoin="round" stroke-miterlimit="3"><path d="m95.295 108.05 3.37-11.115-9.656-7.47h12.117l3.826-11.298 3.918 11.115 11.935.274-9.657 7.197 3.644 11.388-9.93-6.924zM63.93 104.8l2.182-7.196-6.252-4.836h7.845l2.477-7.314 2.536 7.196 7.727.177-6.252 4.66 2.36 7.372-6.43-4.483zM133.78 104.8l2.182-7.196-6.252-4.836h7.845l2.477-7.314 2.537 7.196 7.726.177-6.252 4.66 2.36 7.372-6.43-4.483z" style="paint-order:markers fill stroke"/></g><path d="M12.056 139.933q2.749 0 3.178-.105.435-.1.435-.798 0-.838-.607-1.062-.603-.205-3.006-.205-4.746 0-5.99-.813-1.244-.818-1.244-4.045 0-2.982 1.623-3.82 1.244-.634 5.527-.634 3.815 0 4.835.245 2.398.568 2.398 4.818h-3.798q0-1.162-.43-1.367-.434-.184-2.989-.184-2.57 0-2.967.104-.4.12-.4.838 0 .753.674.978.674.224 2.76.224 4.701 0 6.063.878 1.349.878 1.349 4.045 0 2.922-1.522 3.74-1.311.694-5.906.694-3.537 0-4.59-.185-1.623-.284-2.21-1.346-.59-1.043-.59-3.636h3.799q0 1.227.446 1.431.451.205 3.162.205zm26.245-11.302v8.888q0 3.965-1.467 4.987-1.328.938-6.386.938-5.042 0-6.374-.938-1.467-1.042-1.467-4.987v-8.888h3.798v8.888q0 1.327.624 1.696.742.449 3.419.449 2.639 0 3.347-.43.708-.408.708-1.715v-8.888zm2.972-.02h9.29q3.036 0 4.005.878 1.21 1.088 1.21 4.639 0 3.536-1.193 4.618-.986.898-4.021.898H45.07v3.576h-3.798zm3.798 7.252h5.493q.67 0 1.016-.344.417-.429.417-1.391 0-.998-.417-1.407-.33-.33-1.016-.33H45.07zm13.333 7.357v-14.608H71.7v3.536h-9.497v2.02h9.063v3.516h-9.063v2h9.497v3.536zm16.52-14.608h11.054q2.036 0 2.883.878.915.962.915 3.371 0 1.86-.38 2.778-.396.923-1.328 1.352 1.033.528 1.379 1.082.329.549.329 1.88v3.267h-3.799v-2.613q0-.574-.278-.983-.324-.489-.965-.489h-6.007v4.085h-3.802zm3.803 3.78v2.963h6.091q.624 0 .898-.324.261-.31.261-1.147t-.278-1.162q-.274-.33-.881-.33zm23.69-3.76h3.798v10.808h8.616v3.78h-12.414zm14.813 14.588v-14.608h13.295v3.536h-9.497v2.02h9.063v3.516h-9.063v2h9.497v3.536zm21.667-14.588h6.525l6.113 14.588H147.1l-1.176-2.429h-7.529l-1.172 2.43h-4.438zm3.558 3.292h-.586l-2.057 5.087h4.696zm27.59 1.98h-3.798q0-1.287-.536-1.512-.535-.204-3.697-.204-3.157 0-3.692.474-.536.468-.536 3.286 0 2.798.536 3.247.518.469 3.71.469 3.178 0 3.696-.18.519-.184.519-1.351h-4.696v-3.267h8.494q0 4.758-.295 6.025-.413 1.775-2.07 2.23-1.227.323-5.649.323-5.8 0-6.921-1.102-1.122-1.082-1.122-6.414t1.088-6.394q1.155-1.127 6.955-1.127 5.56 0 6.72.758 1.294.838 1.294 4.738zm18.973-5.272v8.887q0 3.965-1.467 4.988-1.328.938-6.386.938-5.042 0-6.374-.938-1.467-1.043-1.467-4.988v-8.887h3.798v8.887q0 1.327.624 1.696.742.449 3.419.449 2.638 0 3.347-.429.708-.409.708-1.716v-8.887zm2.731 14.588v-14.608h13.296v3.536h-9.498v2.02h9.063v3.516h-9.063v2h9.498v3.536z" aria-label="SUPER LEAGUE"/></g><path fill="#fff" d="M39.788 146.675q3.647 0 4.49.54.738.467.738 2.478h-2.631q0-.657-.393-.838-.488-.222-2.204-.222-1.916 0-2.25.266-.334.264-.334 1.672 0 1.395.334 1.661.334.264 2.25.264 1.74 0 2.181-.191.428-.178.428-.866h2.62q0 2.02-.713 2.476-.846.54-4.515.54-3.667 0-4.432-.592-.773-.594-.773-3.302 0-2.7.738-3.271.8-.615 4.467-.615zm9.625.129v2.646h5.658v-2.646h2.62v7.555h-2.62v-2.953h-5.658v2.953h-2.62v-7.555zm14.137-.013h4.501l4.216 7.558H69.21l-.812-1.259h-5.193l-.808 1.259h-3.062zm2.454 1.705H65.6l-1.419 2.636h3.24zm7.68-1.692v7.555h2.622v-5.302q0-.096-.038-.243-.081-.338-.081-.349 0-.075.07-.075.05 0 .107.106.061.106.131.243l3.262 5.62h2.146l3.024-5.6q.047-.105.12-.232.072-.116.119-.116.073 0 .073.085 0 .042-.062.243-.058.202-.058.339v5.28h2.62v-7.554h-4.466l-2.239 4.243q-.073.413-.108.656-.049.253-.095.253-.059 0-.108-.424-.058-.41-.096-.485l-2.239-4.243zm16.448-.023h6.409q2.093 0 2.762.454.834.564.834 2.403 0 1.832-.822 2.393-.68.465-2.774.465h-3.789v1.853h-2.62zm2.62 3.756h3.789q.462 0 .7-.178.288-.222.288-.72 0-.517-.288-.73-.226-.17-.7-.17h-3.789zm8.947 3.822v-7.555h2.62v7.555zm15.742-3.788q0 2.762-.75 3.302-.808.582-4.882.582-2.977 0-3.908-.192-1.166-.243-1.474-1.056-.239-.626-.239-2.636 0-2.762.739-3.302.808-.594 4.882-.594 4.062 0 4.87.584.762.55.762 3.312zm-8.633 0q0 1.45.381 1.682.37.243 2.62.243 2.262 0 2.643-.243.37-.232.37-1.682 0-1.462-.37-1.705-.37-.233-2.631-.233t-2.632.233q-.38.243-.38 1.705zm22.427-3.767h-2.62v5.206l.189.582q0 .106.011.212-.081 0-.154-.137-.081-.14-.154-.277l-4.478-5.586h-4.288v7.555h2.62v-5.217q0-.01-.201-.584-.012-.103-.012-.209.082 0 .166.137.073.147.142.274l4.49 5.599h4.289zm7.467 5.842q1.895 0 2.192-.054.3-.052.3-.414 0-.434-.42-.55-.415-.106-2.072-.106-3.275 0-4.132-.421-.858-.424-.858-2.096 0-1.545 1.12-1.979.857-.328 3.811-.328 2.632 0 3.336.127 1.654.294 1.654 2.495h-2.62q0-.602-.296-.707-.3-.096-2.062-.096-1.774 0-2.047.054-.276.062-.276.434 0 .39.465.507.465.116 1.905.116 3.242 0 4.18.455.931.454.931 2.095 0 1.514-1.05 1.938-.904.36-4.073.36-2.44 0-3.167-.096-1.119-.148-1.523-.698-.407-.54-.407-1.884h2.62q0 .636.308.742.31.106 2.18.106zm9.755-5.842v2.646h5.658v-2.646h2.62v7.555h-2.62v-2.953h-5.658v2.953h-2.62v-7.555zm10.351 7.555v-7.555h2.62v7.555zm4.524-7.578h6.409q2.093 0 2.762.454.835.564.835 2.403 0 1.832-.823 2.393-.68.465-2.774.465h-3.789v1.853h-2.62zm2.62 3.756h3.789q.462 0 .7-.178.288-.222.288-.72 0-.517-.288-.73-.226-.17-.7-.17h-3.789z" aria-label="CHAMPIONSHIP"/><g stroke-linecap="round" stroke-linejoin="round" stroke-miterlimit="3" stroke-width=".423"><path fill="#fff" d="M66.562 174.18h30.737c12.408 7.57 25.698 13.726 40.336 17.863-6.417 8.627-13.884 15.028-21.754 20.578-18.36-10.491-35.908-21.856-49.319-38.441z" style="paint-order:markers fill stroke"/><path fill="#1eff00" d="M58.236 174.19h8.375c14.587 17.716 31.83 28.35 49.282 38.427l-12.401 7.473c-22.142-11.015-36.714-26.626-45.255-45.9z" style="paint-order:markers fill stroke"/><path fill="red" d="m97.293 174.19 50.774-.008c-2.544 5.962-5.756 11.923-10.441 17.885-12.428-3.567-25.408-8.773-40.333-17.876z" style="paint-order:markers fill stroke"/><path fill="url(#a)" d="m148.07 174.18-50.767.008H66.565l.007.008h-8.333c8.54 19.273 23.113 34.884 45.255 45.9l12.39-7.467.01-.006c7.862-5.545 15.323-11.941 21.734-20.557 4.685-5.962 7.897-11.923 10.441-17.885z" style="paint-order:markers fill stroke"/></g></svg>