<svg id="Livello_1" xmlns="http://www.w3.org/2000/svg" version="1.1" viewBox="0 0 595.82 254.91" width="180" height="90">
  
  <defs>
    <style>
      .st0, .st1 {
        fill: #ffffff;
      }

      .st1 {
        stroke: #ffffff;
        stroke-miterlimit: 10;
        stroke-width: 2px;
      }
    </style>
  </defs>
  <path class="st0" d="M0,2.53h30.91v132.68h67.2v28.73H0V2.53Z"></path>
  <polygon class="st0" points="288.22 104.67 314.28 85.98 314.28 163.94 288.22 163.94 288.22 104.67"></polygon>
  <path class="st0" d="M314.28,85.98h48.67c4.94,0,9.33-1.21,13.16-3.62,3.83-2.41,6.79-5.83,8.88-10.27,2.09-4.44,3.13-9.54,3.13-15.31s-1.04-10.87-3.13-15.31c-2.09-4.44-5.03-7.86-8.81-10.27-3.79-2.41-8.2-3.62-13.22-3.62h-74.73V2.53h73.71c10.73,0,20.16,2.24,28.29,6.72,8.13,4.48,14.43,10.83,18.91,19.05,4.47,8.22,6.71,17.72,6.71,28.49s-2.26,20.26-6.77,28.49c-4.52,8.22-10.84,14.58-18.97,19.05-8.13,4.48-17.52,6.72-28.17,6.72h-62.34l14.69-25.06Z"></path>
  <polygon class="st0" points="350.17 90.72 376.1 85.62 423.62 163.94 392.71 163.94 350.17 90.72"></polygon>
  <path class="st0" d="M568.76,163.94h27.07L528.88,2.53h-30.56l-66.65,161.41h26.19l20.37-50.77h44.03l-5.99-16.29h-32.8s29.69-75.92,29.11-75.92h.58"></path>
  <polygon class="st0" points="216.09 82.55 201.19 90.78 166.17 43.86 187.22 43.86 216.09 82.55"></polygon>
  <polygon class="st0" points="216.09 82.86 201.19 74.63 166.17 121.55 187.22 121.55 216.09 82.86"></polygon>
  <path class="st0" d="M185.13,0c-44.88,0-81.27,36.39-81.27,81.27s36.39,81.27,81.27,81.27,81.27-36.39,81.27-81.27S230.02,0,185.13,0ZM185.13,142.14c-33.62,0-60.87-27.25-60.87-60.87s27.25-60.87,60.87-60.87,60.87,27.25,60.87,60.87-27.25,60.87-60.87,60.87Z"></path>
  <line class="st1" x1="166.17" y1="185.78" x2="423.62" y2="185.78"></line>
  <g>
    <path class="st0" d="M128.14,242.93c0,2.54-.63,4.7-1.89,6.49s-3.02,3.15-5.29,4.09c-2.27.94-4.93,1.41-8,1.41-1.62,0-3.15-.08-4.6-.23-1.45-.16-2.77-.38-3.98-.67-1.21-.29-2.28-.65-3.19-1.08v-4.78c1.46.61,3.25,1.17,5.36,1.68s4.32.78,6.62.78c2.15,0,3.96-.29,5.45-.86,1.48-.58,2.61-1.41,3.38-2.49.77-1.08,1.16-2.39,1.16-3.91s-.32-2.69-.97-3.68-1.71-1.88-3.21-2.7-3.53-1.67-6.11-2.59c-1.82-.64-3.42-1.35-4.8-2.12-1.39-.77-2.55-1.65-3.49-2.62s-1.65-2.11-2.12-3.4c-.48-1.29-.72-2.76-.72-4.42,0-2.29.58-4.24,1.74-5.87,1.16-1.63,2.77-2.88,4.83-3.75,2.06-.87,4.43-1.3,7.1-1.3,2.29,0,4.4.21,6.34.64,1.94.43,3.73,1.01,5.35,1.73l-1.55,4.28c-1.54-.64-3.18-1.18-4.91-1.61s-3.51-.64-5.35-.64-3.38.27-4.64.81-2.22,1.29-2.89,2.27c-.66.98-1,2.14-1,3.49,0,1.5.32,2.75.95,3.75.63,1,1.65,1.88,3.05,2.65,1.4.77,3.25,1.58,5.55,2.42,2.52.92,4.66,1.89,6.42,2.92s3.1,2.28,4.01,3.75c.92,1.47,1.38,3.34,1.38,5.61Z"></path>
    <path class="st0" d="M206.8,211.49c5.53,0,9.57,1.08,12.11,3.24s3.82,5.25,3.82,9.27c0,1.82-.3,3.54-.89,5.17-.6,1.63-1.56,3.07-2.89,4.31-1.33,1.24-3.07,2.22-5.23,2.93-2.16.71-4.8,1.07-7.92,1.07h-5.21v16.85h-4.98v-42.83h11.19ZM206.34,215.74h-5.74v17.46h4.66c2.73,0,5.01-.29,6.84-.88,1.83-.59,3.2-1.54,4.12-2.86.92-1.32,1.38-3.07,1.38-5.26,0-2.85-.91-4.98-2.72-6.37s-4.66-2.09-8.53-2.09Z"></path>
    <path class="st0" d="M407.43,211.49c3.52,0,6.42.43,8.72,1.3s4.01,2.19,5.14,3.97,1.7,4.04,1.7,6.8c0,2.27-.41,4.16-1.23,5.67s-1.89,2.74-3.22,3.68-2.74,1.66-4.25,2.17l11.75,19.25h-5.8l-10.49-17.87h-8.91v17.87h-4.98v-42.83h11.57ZM407.14,215.8h-6.3v16.44h6.8c3.5,0,6.07-.71,7.72-2.14s2.48-3.53,2.48-6.3c0-2.91-.87-4.97-2.62-6.18s-4.44-1.82-8.07-1.82Z"></path>
    <path class="st0" d="M504.78,254.32h-5.01v-38.44h-13.48v-4.39h31.9v4.39h-13.42v38.44Z"></path>
  </g>
  <path class="st0" d="M328.99,232.93c0-11.82-9.58-21.4-21.4-21.4s-21.4,9.58-21.4,21.4,9.58,21.4,21.4,21.4,21.4-9.58,21.4-21.4ZM307.6,249.63c-9.07,0-16.43-7.35-16.43-16.43s7.35-16.43,16.43-16.43,16.43,7.35,16.43,16.43-7.35,16.43-16.43,16.43Z"></path>
</svg>